<svg xmlns="http://www.w3.org/2000/svg" version="1.1" xmlns:xlink="http://www.w3.org/1999/xlink" xmlns:svgjs="http://svgjs.dev/svgjs" width="1920" height="560" preserveAspectRatio="none" viewBox="0 0 1920 560"><g mask="url(&quot;#SvgjsMask1035&quot;)" fill="none"><rect width="1920" height="560" x="0" y="0" fill="rgba(12, 10, 47, 1)"></rect><path d="M92.196,388.921C113.658,389.297,136.074,383.581,147.483,365.399C159.525,346.207,158.354,321.442,146.744,301.986C135.414,283,114.303,272.4,92.196,272.752C70.7,273.094,51.263,285.022,40.572,303.674C29.94,322.223,29.093,345.23,40.168,363.518C50.883,381.211,71.514,388.558,92.196,388.921" fill="rgba(28, 83, 142, 0.4)" class="triangle-float2"></path><path d="M1598.760918353973 468.51441298239104L1627.9914905109847 330.9953830952312 1490.4724606238249 301.7648109382195 1461.2418884668132 439.28384082537934z" fill="rgba(28, 83, 142, 0.4)" class="triangle-float2"></path><path d="M941.0677355855986 4.800586247739719L933.0685382427318 119.19443776965345 1047.4623897646456 127.19363511252016 1055.4615871075123 12.799783590606435z" fill="rgba(28, 83, 142, 0.4)" class="triangle-float1"></path><path d="M240.0342535190982 274.8980224452531L118.68135510033659 350.7277294325031 194.5110620875866 472.08062785126475 315.86396050634823 396.2509208640147z" fill="rgba(28, 83, 142, 0.4)" class="triangle-float3"></path><path d="M248.8356276621044 373.9887300594309L367.5744543197222 281.21979148356155 274.8055157438528 162.48096482594377 156.06668908623504 255.24990340181313z" fill="rgba(28, 83, 142, 0.4)" class="triangle-float2"></path><path d="M1641.465,61.119C1657.417,61.798,1671.763,51.955,1679.811,38.166C1687.93,24.257,1689.427,6.93,1681.162,-6.893C1673.087,-20.398,1657.199,-25.798,1641.465,-25.966C1625.376,-26.137,1607.937,-21.903,1600.276,-7.754C1592.852,5.956,1600.385,21.743,1608.387,35.124C1616.101,48.023,1626.449,60.48,1641.465,61.119" fill="rgba(28, 83, 142, 0.4)" class="triangle-float1"></path><path d="M1313.667,707.605C1360.637,710.01,1405.524,685.88,1429.79,645.592C1454.838,604.006,1458.84,550.743,1432.843,509.743C1408.313,471.057,1359.464,463.426,1313.667,462.454C1265.453,461.431,1209.102,462.495,1185.397,504.492C1161.894,546.131,1190.93,594.244,1216.461,634.671C1239.644,671.381,1270.307,705.385,1313.667,707.605" fill="rgba(28, 83, 142, 0.4)" class="triangle-float3"></path><path d="M919.9447191935624 247.96188447335857L816.4217441286219 151.42514846344858 719.8850081187118 254.9481235283891 823.4079831836524 351.48485953829913z" fill="rgba(28, 83, 142, 0.4)" class="triangle-float3"></path><path d="M279.427,428.57C319.291,427.911,363.693,424.796,384.41,390.732C405.684,355.752,394.327,310.967,371.705,276.843C351.484,246.34,316.012,233.323,279.427,232.37C240.703,231.361,200.351,239.872,178.426,271.807C153.57,308.012,144.468,357.39,168.253,394.307C190.763,429.245,237.871,429.257,279.427,428.57" fill="rgba(28, 83, 142, 0.4)" class="triangle-float1"></path><path d="M953.978,476.522C981.622,478.057,1009.876,469.33,1025.376,446.388C1042.815,420.577,1049.633,385.882,1033.019,359.533C1017.141,334.352,983.695,331.392,953.978,333.156C927.887,334.704,902.363,345.19,889.673,368.04C877.302,390.316,882.117,417.235,895.11,439.154C907.813,460.583,929.105,475.141,953.978,476.522" fill="rgba(28, 83, 142, 0.4)" class="triangle-float3"></path></g><defs><mask id="SvgjsMask1035"><rect width="1920" height="560" fill="#ffffff"></rect></mask><style>
                @keyframes float1 {
                    0%{transform: translate(0, 0)}
                    50%{transform: translate(-10px, 0)}
                    100%{transform: translate(0, 0)}
                }

                .triangle-float1 {
                    animation: float1 5s infinite;
                }

                @keyframes float2 {
                    0%{transform: translate(0, 0)}
                    50%{transform: translate(-5px, -5px)}
                    100%{transform: translate(0, 0)}
                }

                .triangle-float2 {
                    animation: float2 4s infinite;
                }

                @keyframes float3 {
                    0%{transform: translate(0, 0)}
                    50%{transform: translate(0, -10px)}
                    100%{transform: translate(0, 0)}
                }

                .triangle-float3 {
                    animation: float3 6s infinite;
                }
            </style></defs></svg>